# xmcd CD database file generated by Grip 3.2.0
# 
# Track frame offsets:
#       150
#       14287
#       27155
#       41432
#       56242
#       70575
#       80950
#       92935
#       105577
#       117865
#       129682
#       142705
#       153917
#       166895
#       183035
#       193695
# 
# Disc length: 2792 seconds
# 
# Revision: 1
# Processed by: cddbd v1.5.2PL0 Copyright (c) Steve Scherf et al.
# Submitted via: Grip 3.2.0
# 
DISCID=cd0ae610
DTITLE=Various Artist - The Story Of The Blues [CD2]
DYEAR=1991
DGENRE=Blues
TTITLE0=Leroy Carr and Scrapper Blackwell - Midnight Hour Blues
TTITLE1=Faber Smith and Jimmy Yancey - East St. Louis Blues
TTITLE2=Peetie Wheatstraw - Good Whiskey Blues
TTITLE3=Casey Hill and Black Bob - WPA Blues
TTITLE4=Bo Carter - Sorry Feeling Blues
TTITLE5=Robert Johnson - Little Queen Of Spades
TTITLE6=Bukka White - Parchman Farm Blues
TTITLE7=Memphis Minnie - Me And My Chauffeur Blues
TTITLE8=Blind Boy Fuller and Sonny Terry - I Want Some Of Your Pie
TTITLE9=Browne McGhee - Million Lonesome Women
TTITLE10=Joe Williams and Sonny Boy Williams - Wild Cow Moan
TTITLE11=Big Bill Broonzy - All By Myself
TTITLE12=Joe Turner and Pete Johnson - Roll 'em Pete
TTITLE13=Otis Spann - Bloody Murder
TTITLE14=Elmore James - Sunnyland
TTITLE15=Johnny Shines - I Don't Know
EXTD=
EXTT0=
EXTT1=
EXTT2=
EXTT3=
EXTT4=
EXTT5=
EXTT6=
EXTT7=
EXTT8=
EXTT9=
EXTT10=
EXTT11=
EXTT12=
EXTT13=
EXTT14=
EXTT15=
PLAYORDER=
